<svg
  width="80"
  height="40"
  viewBox="0 0 80 40"
  fill="none"
  xmlns="http://www.w3.org/2000/svg"
>
  <path
    d="M21.6028 22.2956V39.6494H17.5671V25.6011H10.8928V39.6494H6.85714V22.2956H21.6028Z"
    fill="#3A3A3A"
  />
  <path
    d="M33.5925 25.6011C33.5408 26.7196 33.4718 27.8465 33.3856 28.9817C33.3166 30.1002 33.1786 31.1853 32.9717 32.2371C32.782 33.2888 32.4974 34.2738 32.118 35.192C31.7558 36.1102 31.247 36.9199 30.5917 37.621C29.9536 38.3222 29.1516 38.8815 28.1858 39.2988C27.22 39.7162 26.0386 39.9499 24.6417 40L24.2019 36.5943C25.4436 36.4608 26.4008 36.1603 27.0734 35.6928C27.746 35.2087 28.2548 34.4742 28.5997 33.4892C29.0309 32.2705 29.3327 30.7012 29.5051 28.7814C29.6949 26.8448 29.7897 24.6829 29.7897 22.2956H42.026V39.6494H37.9904V25.6011H33.5925Z"
    fill="#3A3A3A"
  />
  <path
    d="M58.1702 39.6494C57.9805 39.0484 57.765 38.4307 57.5235 37.7963C57.2993 37.162 57.0751 36.5276 56.8509 35.8932H49.8661C49.6419 36.5276 49.4091 37.162 49.1676 37.7963C48.9434 38.4307 48.7365 39.0484 48.5468 39.6494H44.3559C45.0285 37.7796 45.6666 36.0518 46.2702 34.4658C46.8739 32.8798 47.4602 31.3857 48.0294 29.9834C48.6158 28.581 49.1849 27.2538 49.7368 26.0017C50.3059 24.733 50.8923 23.4976 51.4959 22.2956H55.3505C55.9368 23.4976 56.5146 24.733 57.0837 26.0017C57.6529 27.2538 58.222 28.581 58.7911 29.9834C59.3775 31.3857 59.9725 32.8798 60.5761 34.4658C61.1797 36.0518 61.8179 37.7796 62.4905 39.6494H58.1702ZM53.3326 26.2271C53.2464 26.4775 53.1171 26.8198 52.9446 27.2538C52.7721 27.6879 52.5738 28.1887 52.3496 28.7563C52.1254 29.3239 51.8753 29.95 51.5994 30.6344C51.3407 31.3189 51.0734 32.0368 50.7974 32.788H55.8937C55.6178 32.0368 55.3505 31.3189 55.0918 30.6344C54.8331 29.95 54.583 29.3239 54.3415 28.7563C54.1173 28.1887 53.919 27.6879 53.7466 27.2538C53.5741 26.8198 53.4361 26.4775 53.3326 26.2271Z"
    fill="#3A3A3A"
  />
  <path
    d="M75.6245 22.2956H79.6602V39.6494H75.6245V32.2872H68.8467V39.6494H64.8111V22.2956H68.8467V28.9316H75.6245V22.2956Z"
    fill="#3A3A3A"
  />
  <path
    fill-rule="evenodd"
    clip-rule="evenodd"
    d="M26.0007 17.5542V0.200333H16.9593V3.50583H21.9651V17.5542H26.0007ZM15.2907 3.50583V0.200333H11.2551V17.5542H15.2907V3.50583Z"
    fill="#3A3A3A"
  />
  <path
    fill-rule="evenodd"
    clip-rule="evenodd"
    d="M41.5087 15.7011C41.7502 16.3355 41.9657 16.9532 42.1554 17.5542H46.4757C45.8031 15.6844 45.1649 13.9565 44.5613 12.3706C43.9577 10.7846 43.3627 9.29045 42.7763 7.88811C42.2072 6.48578 41.6381 5.15858 41.0689 3.9065C40.4998 2.63772 39.922 1.40233 39.3357 0.200333H35.4811C34.8775 1.40233 34.2911 2.63772 33.722 3.9065C33.1701 5.15858 32.601 6.48578 32.0146 7.88811C31.4454 9.29045 30.8591 10.7846 30.2554 12.3706C29.6518 13.9565 29.0137 15.6844 28.3411 17.5542H32.532C32.7217 16.9532 32.9286 16.3355 33.1528 15.7011C33.3943 15.0667 33.6271 14.4323 33.8513 13.7979H39.5265L38.6049 10.6928H34.7826C35.0586 9.94153 35.3259 9.22367 35.5846 8.5392C35.8605 7.85473 36.1106 7.22868 36.3348 6.66107C36.559 6.09346 36.7573 5.59263 36.9298 5.15858C37.1023 4.72452 37.2316 4.38229 37.3178 4.13187C37.4213 4.38229 37.5593 4.72452 37.7318 5.15858C37.9042 5.59263 38.1025 6.09346 38.3268 6.66107C38.5682 7.22868 38.8183 7.85473 39.077 8.5392C39.3357 9.22367 39.603 9.94153 39.8789 10.6928L40.8361 13.7979L41.5087 15.7011Z"
    fill="#3A3A3A"
  />
  <path
    fill-rule="evenodd"
    clip-rule="evenodd"
    d="M60.3341 1.37729C58.9026 0.459097 56.8503 0 54.1771 0C53.4355 0 52.5732 0.0333889 51.5902 0.100167C50.6071 0.166945 49.6758 0.283805 48.7962 0.45075V17.5542H52.8319V11.7445V8.41399V3.40566C53.0389 3.38897 53.2803 3.37227 53.5563 3.35558C53.8494 3.33888 54.1426 3.33054 54.4358 3.33054C55.0222 3.33054 55.5568 3.37227 56.0397 3.45575C56.5226 3.52252 56.9279 3.65608 57.2556 3.85641C57.6005 4.04005 57.8592 4.29047 58.0317 4.60766C58.2214 4.92485 58.3163 5.32552 58.3163 5.80966C58.3163 6.81132 57.9627 7.4958 57.2556 7.86307C56.5485 8.23035 55.4965 8.41399 54.0995 8.41399V11.7445C56.7899 11.7445 58.8595 11.2854 60.3082 10.3672C61.7569 9.43235 62.4813 7.9215 62.4813 5.8347C62.4813 3.76459 61.7655 2.27879 60.3341 1.37729Z"
    fill="#3A3A3A"
  />
  <path
    fill-rule="evenodd"
    clip-rule="evenodd"
    d="M75.0331 15.7011C75.2745 16.3355 75.4901 16.9532 75.6798 17.5542H80C79.3274 15.6844 78.6893 13.9565 78.0856 12.3706C77.482 10.7846 76.887 9.29045 76.3007 7.88811C75.7315 6.48578 75.1624 5.15858 74.5933 3.9065C74.0241 2.63772 73.4464 1.40233 72.86 0.200333H69.0054C68.4018 1.40233 67.8154 2.63772 67.2463 3.9065C66.6944 5.15858 66.1253 6.48578 65.5389 7.88811C64.9698 9.29045 64.3834 10.7846 63.7798 12.3706C63.1762 13.9565 62.538 15.6844 61.8654 17.5542H66.0563C66.246 16.9532 66.453 16.3355 66.6772 15.7011C66.9186 15.0667 67.1515 14.4323 67.3757 13.7979H73.0508L72.1292 10.6928H68.307C68.5829 9.94153 68.8502 9.22367 69.1089 8.5392C69.3849 7.85473 69.6349 7.22868 69.8591 6.66107C70.0833 6.09346 70.2817 5.59263 70.4541 5.15858C70.6266 4.72452 70.7559 4.38229 70.8422 4.13187C70.9457 4.38229 71.0836 4.72452 71.2561 5.15858C71.4286 5.59263 71.6269 6.09346 71.8511 6.66107C72.0925 7.22868 72.3426 7.85473 72.6013 8.5392C72.86 9.22367 73.1273 9.94153 73.4033 10.6928L74.3604 13.7979L75.0331 15.7011Z"
    fill="#3A3A3A"
  />
  <path d="M9.09926 17.5542H5.02857V0.200333H9.09926V17.5542Z" fill="#FF8787" />
  <path d="M4.11429 0.200333H0V39.6494H4.11429V0.200333Z" fill="#FF8787" />
</svg>
