<svg
  width="28"
  height="28"
  viewBox="0 0 28 28"
  fill="none"
  xmlns="http://www.w3.org/2000/svg"
>
  <path
    fill-rule="evenodd"
    clip-rule="evenodd"
    d="M9.70257 0H18.2974C26.1223 0 28 1.85932 28 9.70257V18.2974C28 26.1407 26.1407 28 18.2974 28H9.70257C1.85932 28 0 26.1407 0 18.2974V9.70257C0 1.85932 1.85932 0 9.70257 0ZM15.0236 5.76519H18.0803C18.2679 5.76519 18.3753 5.82799 18.3753 5.97535V21.3472C18.3753 21.4517 18.3216 21.5147 18.1607 21.5147H16.4979C16.3914 21.5147 16.3109 21.4308 16.3109 21.368V15.6768H14.9698L11.2433 21.368C11.1898 21.4728 11.0825 21.5147 10.9216 21.5147H9.0181C8.80425 21.5147 8.6703 21.368 8.80425 21.1789L12.9055 15.383C10.7077 14.627 9.474 13.0941 9.474 11.0152C9.474 7.55014 12.0212 5.76519 15.0236 5.76519ZM16.311 14.3331H15.1844C13.4151 14.3331 11.6993 13.3252 11.6993 10.8051C11.6993 8.17979 13.3077 7.10904 14.9431 7.10904H16.311L16.311 14.3331Z"
    fill="#FF3333"
  />
  <path
    fill-rule="evenodd"
    clip-rule="evenodd"
    d="M18.0803 5.76519H15.0236C12.0212 5.76519 9.474 7.55014 9.474 11.0152C9.474 13.0941 10.7077 14.627 12.9055 15.383L8.80425 21.1789C8.6703 21.368 8.80425 21.5147 9.0181 21.5147H10.9216C11.0825 21.5147 11.1898 21.4728 11.2433 21.368L14.9698 15.6768H16.3109V21.368C16.3109 21.4308 16.3914 21.5147 16.4979 21.5147H18.1607C18.3216 21.5147 18.3753 21.4517 18.3753 21.3472V5.97535C18.3753 5.82799 18.2679 5.76519 18.0803 5.76519ZM15.1844 14.3331H16.311L16.311 7.10904H14.9431C13.3077 7.10904 11.6993 8.17979 11.6993 10.8051C11.6993 13.3252 13.4151 14.3331 15.1844 14.3331Z"
    fill="white"
  />
</svg>
