<svg width="120" height="60" viewBox="0 0 120 60" fill="none" xmlns="http://www.w3.org/2000/svg">
<path d="M32.4042 33.4434V59.4741H26.3507V38.4016H16.3392V59.4741H10.2857V33.4434H32.4042Z" fill="#3A3A3A"/>
<path d="M50.3888 38.4016C50.3112 40.0794 50.2077 41.7697 50.0784 43.4725C49.9749 45.1503 49.7679 46.778 49.4575 48.3556C49.1729 49.9333 48.7461 51.4107 48.177 52.788C47.6337 54.1653 46.8705 55.3798 45.8875 56.4316C44.9303 57.4833 43.7274 58.3222 42.2787 58.9483C40.83 59.5743 39.0579 59.9249 36.9625 60L36.3028 54.8915C38.1654 54.6912 39.6012 54.2404 40.6101 53.5393C41.619 52.8131 42.3822 51.7112 42.8996 50.2338C43.5463 48.4057 43.999 46.0518 44.2577 43.172C44.5423 40.2672 44.6846 37.0243 44.6846 33.4434H63.039V59.4741H56.9855V38.4016H50.3888Z" fill="#3A3A3A"/>
<path d="M87.2554 59.4741C86.9708 58.5726 86.6474 57.6461 86.2853 56.6945C85.949 55.7429 85.6127 54.7913 85.2764 53.8398H74.7992C74.4629 54.7913 74.1136 55.7429 73.7515 56.6945C73.4152 57.6461 73.1047 58.5726 72.8202 59.4741H66.5338C67.5428 56.6695 68.4999 54.0777 69.4054 51.6987C70.3108 49.3197 71.1904 47.0785 72.0441 44.975C72.9236 42.8715 73.7773 40.8807 74.6052 39.0026C75.4588 37.0994 76.3384 35.2463 77.2439 33.4434H83.0257C83.9053 35.2463 84.7719 37.0994 85.6256 39.0026C86.4793 40.8807 87.333 42.8715 88.1867 44.975C89.0662 47.0785 89.9587 49.3197 90.8642 51.6987C91.7696 54.0777 92.7268 56.6695 93.7357 59.4741H87.2554ZM79.999 39.3407C79.8696 39.7163 79.6756 40.2296 79.4169 40.8807C79.1582 41.5318 78.8607 42.283 78.5244 43.1345C78.1881 43.9859 77.813 44.9249 77.3991 45.9517C77.011 46.9784 76.61 48.0551 76.1961 49.182H83.8406C83.4267 48.0551 83.0257 46.9784 82.6376 45.9517C82.2496 44.9249 81.8745 43.9859 81.5123 43.1345C81.176 42.283 80.8785 41.5318 80.6198 40.8807C80.3611 40.2296 80.1542 39.7163 79.999 39.3407Z" fill="#3A3A3A"/>
<path d="M113.437 33.4434H119.49V59.4741H113.437V48.4308H103.27V59.4741H97.2166V33.4434H103.27V43.3974H113.437V33.4434Z" fill="#3A3A3A"/>
<path fill-rule="evenodd" clip-rule="evenodd" d="M39.0011 26.3313V0.3005H25.4389V5.25874H32.9476V26.3313H39.0011ZM22.9361 5.25874V0.3005H16.8826V26.3313H22.9361V5.25874Z" fill="#3A3A3A"/>
<path fill-rule="evenodd" clip-rule="evenodd" d="M62.2631 23.5517C62.6252 24.5032 62.9486 25.4298 63.2332 26.3313H69.7135C68.7046 23.5266 67.7474 20.9348 66.842 18.5558C65.9365 16.1769 65.044 13.9357 64.1645 11.8322C63.3108 9.72867 62.4571 7.73786 61.6034 5.85974C60.7497 3.95658 59.8831 2.1035 59.0035 0.3005H53.2216C52.3162 2.1035 51.4366 3.95658 50.583 5.85974C49.7551 7.73786 48.9014 9.72867 48.0219 11.8322C47.1682 13.9357 46.2886 16.1769 45.3832 18.5558C44.4777 20.9348 43.5206 23.5266 42.5117 26.3313H48.798C49.0825 25.4298 49.393 24.5032 49.7293 23.5517C50.0914 22.6001 50.4407 21.6485 50.777 20.6969H59.2897L57.9073 16.0392H52.1739C52.5878 14.9123 52.9888 13.8355 53.3769 12.8088C53.7908 11.7821 54.1659 10.843 54.5022 9.99161C54.8385 9.1402 55.136 8.38895 55.3947 7.73786C55.6534 7.08678 55.8474 6.57343 55.9768 6.1978C56.132 6.57343 56.3389 7.08678 56.5976 7.73786C56.8563 8.38895 57.1538 9.1402 57.4901 9.99161C57.8523 10.843 58.2274 11.7821 58.6155 12.8088C59.0035 13.8355 59.4045 14.9123 59.8184 16.0392L61.2542 20.6969L62.2631 23.5517Z" fill="#3A3A3A"/>
<path fill-rule="evenodd" clip-rule="evenodd" d="M90.5011 2.06593C88.3539 0.688645 85.2755 0 81.2657 0C80.1533 0 78.8598 0.0500834 77.3852 0.15025C75.9107 0.250417 74.5137 0.425708 73.1944 0.676124V26.3313H79.2479V17.6168V12.621V5.10849C79.5583 5.08345 79.9205 5.05841 80.3344 5.03337C80.7742 5.00833 81.2139 4.99581 81.6537 4.99581C82.5333 4.99581 83.3353 5.05841 84.0596 5.18362C84.7839 5.28378 85.3919 5.48412 85.8834 5.78462C86.4008 6.06007 86.7888 6.4357 87.0475 6.91149C87.3321 7.38728 87.4744 7.98828 87.4744 8.71449C87.4744 10.217 86.9441 11.2437 85.8834 11.7946C84.8227 12.3455 83.2447 12.621 81.1493 12.621V17.6168C85.1849 17.6168 88.2893 16.9281 90.4623 15.5509C92.6354 14.1485 93.7219 11.8823 93.7219 8.75205C93.7219 5.64689 92.6483 3.41818 90.5011 2.06593Z" fill="#3A3A3A"/>
<path fill-rule="evenodd" clip-rule="evenodd" d="M112.55 23.5517C112.912 24.5032 113.235 25.4298 113.52 26.3313H120C118.991 23.5266 118.034 20.9348 117.128 18.5558C116.223 16.1769 115.331 13.9357 114.451 11.8322C113.597 9.72867 112.744 7.73786 111.89 5.85974C111.036 3.95658 110.17 2.1035 109.29 0.3005H103.508C102.603 2.1035 101.723 3.95658 100.869 5.85974C100.042 7.73786 99.1879 9.72867 98.3084 11.8322C97.4547 13.9357 96.5751 16.1769 95.6697 18.5558C94.7642 20.9348 93.8071 23.5266 92.7981 26.3313H99.0844C99.369 25.4298 99.6795 24.5032 100.016 23.5517C100.378 22.6001 100.727 21.6485 101.063 20.6969H109.576L108.194 16.0392H102.46C102.874 14.9123 103.275 13.8355 103.663 12.8088C104.077 11.7821 104.452 10.843 104.789 9.99161C105.125 9.1402 105.423 8.38895 105.681 7.73786C105.94 7.08678 106.134 6.57343 106.263 6.1978C106.418 6.57343 106.625 7.08678 106.884 7.73786C107.143 8.38895 107.44 9.1402 107.777 9.99161C108.139 10.843 108.514 11.7821 108.902 12.8088C109.29 13.8355 109.691 14.9123 110.105 16.0392L111.541 20.6969L112.55 23.5517Z" fill="#3A3A3A"/>
<path d="M13.6489 26.3313H7.54286V0.3005H13.6489V26.3313Z" fill="#FF8787"/>
<path d="M6.17143 0.3005H0V59.4741H6.17143V0.3005Z" fill="#FF8787"/>
</svg>
