<svg width="130" height="235" viewBox="0 0 130 235" fill="none" xmlns="http://www.w3.org/2000/svg">
<path d="M118.774 0H11.2262C5.02617 0 0 4.82417 0 10.7751V224.225C0 230.176 5.02617 235 11.2262 235H118.774C124.974 235 130 230.176 130 224.225V10.7751C130 4.82417 124.974 0 118.774 0Z" fill="#2F2E41"/>
<path d="M123 14.8003V220.2C123 221.224 122.789 222.239 122.379 223.186C121.969 224.132 121.368 224.992 120.611 225.717C119.854 226.441 118.954 227.015 117.965 227.407C116.976 227.799 115.915 228 114.844 228H14.1482C11.9868 227.999 9.9143 227.177 8.38633 225.714C6.85835 224.251 6 222.268 6 220.2V14.8003C6 12.7322 6.85835 10.7487 8.38633 9.28598C9.9143 7.82325 11.9868 7.00101 14.1482 7.00004H35.9908C35.9908 7.00004 38.27 7.00004 37.8901 10.6349C37.8901 10.6349 37.1304 13.9062 41.3089 13.9062H88.9826C88.9826 13.9062 91.6683 13.9062 91.7481 10.4531C91.6592 9.81784 91.6823 9.17279 91.8165 8.54484C91.9212 8.10393 92.1801 7.71045 92.5504 7.42953C92.9206 7.1486 93.38 6.99708 93.8526 7.00004H114.825C115.898 6.99717 116.96 7.19682 117.952 7.58753C118.944 7.97825 119.845 8.55236 120.604 9.27697C121.364 10.0016 121.966 10.8624 122.377 11.8102C122.788 12.758 123 13.7742 123 14.8003Z" fill="#FFFEF6"/>
<path d="M48.9025 96.5086V111.693H45.3713V99.4009H39.5312V111.693H36V96.5086H48.9025Z" fill="#3A3A3A"/>
<path d="M59.3935 99.4009C59.3482 100.38 59.2878 101.366 59.2124 102.359C59.152 103.338 59.0313 104.287 58.8502 105.207C58.6842 106.128 58.4352 106.99 58.1032 107.793C57.7863 108.596 57.3412 109.305 56.7677 109.918C56.2094 110.532 55.5076 111.021 54.6626 111.386C53.8175 111.752 52.7838 111.956 51.5615 112L51.1766 109.02C52.2632 108.903 53.1007 108.64 53.6892 108.231C54.2778 107.808 54.7229 107.165 55.0247 106.303C55.402 105.237 55.6661 103.864 55.817 102.184C55.983 100.489 56.066 98.5975 56.066 96.5086H66.7728V111.693H63.2416V99.4009H59.3935Z" fill="#3A3A3A"/>
<path d="M80.899 111.693C80.733 111.167 80.5443 110.627 80.3331 110.072C80.1369 109.517 79.9407 108.962 79.7445 108.407H73.6329C73.4367 108.962 73.233 109.517 73.0217 110.072C72.8255 110.627 72.6444 111.167 72.4784 111.693H68.8114C69.3999 110.057 69.9583 108.545 70.4865 107.158C71.0146 105.77 71.5277 104.462 72.0257 103.235C72.5388 102.008 73.0368 100.847 73.5197 99.7515C74.0177 98.6413 74.5307 97.5604 75.0589 96.5086H78.4317C78.9447 97.5604 79.4503 98.6413 79.9483 99.7515C80.4463 100.847 80.9442 102.008 81.4422 103.235C81.9553 104.462 82.4759 105.77 83.0041 107.158C83.5323 108.545 84.0906 110.057 84.6792 111.693H80.899ZM76.6661 99.9487C76.5906 100.168 76.4774 100.467 76.3265 100.847C76.1756 101.227 76.0021 101.665 75.8059 102.162C75.6097 102.658 75.3909 103.206 75.1495 103.805C74.9231 104.404 74.6892 105.032 74.4477 105.69H78.907C78.6656 105.032 78.4317 104.404 78.2053 103.805C77.9789 103.206 77.7601 102.658 77.5489 102.162C77.3527 101.665 77.1791 101.227 77.0282 100.847C76.8773 100.467 76.7566 100.168 76.6661 99.9487Z" fill="#3A3A3A"/>
<path d="M96.1715 96.5086H99.7027V111.693H96.1715V105.251H90.2409V111.693H86.7097V96.5086H90.2409V102.315H96.1715V96.5086Z" fill="#3A3A3A"/>
<path fill-rule="evenodd" clip-rule="evenodd" d="M52.7506 92.3599V77.1753H44.8394V80.0676H49.2194V92.3599H52.7506ZM43.3794 80.0676V77.1753H39.8482V92.3599H43.3794V80.0676Z" fill="#3A3A3A"/>
<path fill-rule="evenodd" clip-rule="evenodd" d="M66.3201 90.7385C66.5314 91.2936 66.72 91.834 66.886 92.3599H70.6662C70.0777 90.7239 69.5193 89.212 68.9912 87.8242C68.463 86.4365 67.9424 85.1291 67.4293 83.9021C66.9313 82.6751 66.4333 81.5138 65.9353 80.4182C65.4373 79.308 64.9318 78.227 64.4187 77.1753H61.046C60.5178 78.227 60.0047 79.308 59.5067 80.4182C59.0238 81.5138 58.5258 82.6751 58.0128 83.9021C57.5148 85.1291 57.0017 86.4365 56.4735 87.8242C55.9453 89.212 55.387 90.7239 54.7985 92.3599H58.4655C58.6315 91.834 58.8126 91.2936 59.0087 90.7385C59.22 90.1834 59.4237 89.6283 59.6199 89.0732H64.5856L63.7792 86.3562H60.4348C60.6762 85.6988 60.9102 85.0707 61.1365 84.4718C61.378 83.8729 61.5968 83.3251 61.7929 82.8284C61.9891 82.3318 62.1627 81.8936 62.3136 81.5138C62.4645 81.134 62.5777 80.8345 62.6531 80.6154C62.7437 80.8345 62.8644 81.134 63.0153 81.5138C63.1662 81.8936 63.3397 82.3318 63.5359 82.8284C63.7472 83.3251 63.966 83.8729 64.1923 84.4718C64.4187 85.0707 64.6526 85.6988 64.8941 86.3562L65.7316 89.0732L66.3201 90.7385Z" fill="#3A3A3A"/>
<path fill-rule="evenodd" clip-rule="evenodd" d="M82.7923 78.2051C81.5398 77.4017 79.744 77 77.405 77C76.7561 77 76.0016 77.0292 75.1414 77.0876C74.2812 77.1461 73.4663 77.2483 72.6967 77.3944V92.3599H76.2279V87.2765V84.3622V79.98C76.409 79.9653 76.6203 79.9507 76.8617 79.9361C77.1183 79.9215 77.3748 79.9142 77.6313 79.9142C78.1444 79.9142 78.6122 79.9507 79.0348 80.0238C79.4573 80.0822 79.8119 80.1991 80.0987 80.3744C80.4005 80.535 80.6268 80.7542 80.7777 81.0317C80.9437 81.3092 81.0267 81.6598 81.0267 82.0835C81.0267 82.9599 80.7174 83.5588 80.0987 83.8802C79.4799 84.2016 78.5594 84.3622 77.3371 84.3622V87.2765C79.6912 87.2765 81.5021 86.8748 82.7697 86.0713C84.0373 85.2533 84.6711 83.9313 84.6711 82.1054C84.6711 80.294 84.0448 78.9939 82.7923 78.2051Z" fill="#3A3A3A"/>
<path fill-rule="evenodd" clip-rule="evenodd" d="M95.6539 90.7385C95.8652 91.2936 96.0538 91.834 96.2198 92.3599H100C99.4115 90.7239 98.8531 89.212 98.325 87.8242C97.7968 86.4365 97.2762 85.1291 96.7631 83.9021C96.2651 82.6751 95.7671 81.5138 95.2691 80.4182C94.7711 79.308 94.2656 78.227 93.7525 77.1753H90.3798C89.8516 78.227 89.3385 79.308 88.8405 80.4182C88.3576 81.5138 87.8596 82.6751 87.3465 83.9021C86.8486 85.1291 86.3355 86.4365 85.8073 87.8242C85.2791 89.212 84.7208 90.7239 84.1323 92.3599H87.7993C87.9653 91.834 88.1464 91.2936 88.3425 90.7385C88.5538 90.1834 88.7575 89.6283 88.9537 89.0732H93.9194L93.113 86.3562H89.7686C90.01 85.6988 90.2439 85.0707 90.4703 84.4718C90.7118 83.8729 90.9306 83.3251 91.1267 82.8284C91.3229 82.3318 91.4965 81.8936 91.6474 81.5138C91.7983 81.134 91.9115 80.8345 91.9869 80.6154C92.0774 80.8345 92.1982 81.134 92.3491 81.5138C92.5 81.8936 92.6735 82.3318 92.8697 82.8284C93.081 83.3251 93.2998 83.8729 93.5261 84.4718C93.7525 85.0707 93.9864 85.6988 94.2279 86.3562L95.0654 89.0732L95.6539 90.7385Z" fill="#3A3A3A"/>
<path d="M37.9619 92.3599H34.4V77.1753H37.9619V92.3599Z" fill="#FF8787"/>
<path d="M33.6 77.1753H30V111.693H33.6V77.1753Z" fill="#FF8787"/>
<rect x="14" y="157" width="46" height="18" rx="4" fill="#F0F0F0"/>
<rect x="14" y="183" width="46" height="18" rx="4" fill="#F0F0F0"/>
<rect x="69" y="157" width="46" height="18" rx="4" fill="#F0F0F0"/>
<rect x="69" y="183" width="46" height="18" rx="4" fill="#FF8787"/>
</svg>
