<svg width="27" height="27" viewBox="0 0 27 27" fill="none" xmlns="http://www.w3.org/2000/svg">
<path d="M1 5.86111C1 2.21498 1.03904 1 5.86111 1C10.6832 1 10.7222 2.21498 10.7222 5.86111V5.89539C10.7223 9.51486 10.7223 10.7222 5.86111 10.7222C0.999936 10.7222 0.999952 9.51486 1 5.89539L1 5.86111Z" fill="#FF8787"/>
<path d="M16.2778 5.86111C16.2778 2.21498 16.3168 1 21.1389 1C25.961 1 26 2.21498 26 5.86111V5.89539C26.0001 9.51486 26.0001 10.7222 21.1389 10.7222C16.2777 10.7222 16.2777 9.51486 16.2778 5.89539V5.86111Z" fill="#FF8787"/>
<path d="M16.2778 21.1389C16.2778 17.4928 16.3168 16.2778 21.1389 16.2778C25.961 16.2778 26 17.4928 26 21.1389V21.1732C26.0001 24.7926 26.0001 26 21.1389 26C16.2777 26 16.2777 24.7926 16.2778 21.1732V21.1389Z" fill="#FF8787"/>
<path d="M1 21.1389C1 17.4928 1.03904 16.2778 5.86111 16.2778C10.6832 16.2778 10.7222 17.4928 10.7222 21.1389V21.1732C10.7223 24.7926 10.7223 26 5.86111 26C0.999936 26 0.999952 24.7926 1 21.1732L1 21.1389Z" fill="#FF8787"/>
<path d="M1 5.86111C1 2.21498 1.03904 1 5.86111 1C10.6832 1 10.7222 2.21498 10.7222 5.86111M1 5.86111L1 5.89539M1 5.86111C1 5.87256 1 5.88399 1 5.89539M10.7222 5.86111V5.89539M10.7222 5.86111C10.7222 5.87256 10.7222 5.88399 10.7222 5.89539M16.2778 5.86111C16.2778 2.21498 16.3168 1 21.1389 1C25.961 1 26 2.21498 26 5.86111M16.2778 5.86111V5.89539M16.2778 5.86111C16.2778 5.87256 16.2778 5.88399 16.2778 5.89539M26 5.86111V5.89539M26 5.86111C26 5.87256 26 5.88399 26 5.89539M1 21.1389C1 17.4928 1.03904 16.2778 5.86111 16.2778C10.6832 16.2778 10.7222 17.4928 10.7222 21.1389M1 21.1389L1 21.1732M1 21.1389C1 21.1503 1 21.1618 1 21.1732M10.7222 21.1389V21.1732M10.7222 21.1389C10.7222 21.1503 10.7222 21.1618 10.7222 21.1732M16.2778 21.1389C16.2778 17.4928 16.3168 16.2778 21.1389 16.2778C25.961 16.2778 26 17.4928 26 21.1389M16.2778 21.1389V21.1732M16.2778 21.1389C16.2778 21.1503 16.2778 21.1618 16.2778 21.1732M26 21.1389V21.1732M26 21.1389C26 21.1503 26 21.1618 26 21.1732M10.7222 5.89539C10.7223 9.51486 10.7223 10.7222 5.86111 10.7222C0.999936 10.7222 0.999952 9.51486 1 5.89539M26 5.89539C26.0001 9.51486 26.0001 10.7222 21.1389 10.7222C16.2777 10.7222 16.2777 9.51486 16.2778 5.89539M26 21.1732C26.0001 24.7926 26.0001 26 21.1389 26C16.2777 26 16.2777 24.7926 16.2778 21.1732M10.7222 21.1732C10.7223 24.7926 10.7223 26 5.86111 26C0.999936 26 0.999952 24.7926 1 21.1732" stroke="#FF8787" stroke-width="2" stroke-linecap="round" stroke-linejoin="round"/>
</svg>
